<mxfile host="app.diagrams.net" modified="2020-04-03T08:10:58.292Z" agent="5.0 (Windows NT 10.0; Win64; x64) AppleWebKit/537.36 (KHTML, like Gecko) Chrome/80.0.3987.162 Safari/537.36" etag="M41D71nYmwh8WbuEQN1f" version="12.9.6" type="github">
  <diagram id="7iLu5WUeVG0nR6YDfobx" name="Page-1">
    <mxGraphModel dx="981" dy="492" grid="1" gridSize="10" guides="1" tooltips="1" connect="1" arrows="1" fold="1" page="1" pageScale="1" pageWidth="827" pageHeight="1169" math="0" shadow="0">
      <root>
        <mxCell id="0" />
        <mxCell id="1" parent="0" />
        <mxCell id="qDVLff0Tb1akEaBX5qiA-34" value="" style="rounded=0;whiteSpace=wrap;html=1;strokeColor=#000000;strokeWidth=1;" vertex="1" parent="1">
          <mxGeometry width="770" height="460" as="geometry" />
        </mxCell>
        <mxCell id="qDVLff0Tb1akEaBX5qiA-33" value="" style="group" vertex="1" connectable="0" parent="1">
          <mxGeometry x="30" y="20" width="680" height="390" as="geometry" />
        </mxCell>
        <mxCell id="qDVLff0Tb1akEaBX5qiA-6" value="MMS&lt;br&gt;service / web&lt;br&gt;module" style="rounded=0;whiteSpace=wrap;html=1;" vertex="1" parent="qDVLff0Tb1akEaBX5qiA-33">
          <mxGeometry x="330" y="140" width="150" height="90" as="geometry" />
        </mxCell>
        <mxCell id="qDVLff0Tb1akEaBX5qiA-8" value="MMS&lt;br&gt;DB" style="shape=cylinder;whiteSpace=wrap;html=1;boundedLbl=1;backgroundOutline=1;" vertex="1" parent="qDVLff0Tb1akEaBX5qiA-33">
          <mxGeometry x="375" y="275" width="60" height="80" as="geometry" />
        </mxCell>
        <mxCell id="qDVLff0Tb1akEaBX5qiA-13" style="edgeStyle=orthogonalEdgeStyle;rounded=0;orthogonalLoop=1;jettySize=auto;html=1;exitX=0.5;exitY=1;exitDx=0;exitDy=0;entryX=0.5;entryY=0;entryDx=0;entryDy=0;endArrow=none;endFill=0;" edge="1" parent="qDVLff0Tb1akEaBX5qiA-33" source="qDVLff0Tb1akEaBX5qiA-6" target="qDVLff0Tb1akEaBX5qiA-8">
          <mxGeometry relative="1" as="geometry" />
        </mxCell>
        <mxCell id="qDVLff0Tb1akEaBX5qiA-9" value="" style="group" vertex="1" connectable="0" parent="qDVLff0Tb1akEaBX5qiA-33">
          <mxGeometry y="260" width="200" height="130" as="geometry" />
        </mxCell>
        <mxCell id="qDVLff0Tb1akEaBX5qiA-7" value="" style="group" vertex="1" connectable="0" parent="qDVLff0Tb1akEaBX5qiA-9">
          <mxGeometry width="200" height="130" as="geometry" />
        </mxCell>
        <mxCell id="qDVLff0Tb1akEaBX5qiA-1" value="" style="rounded=0;whiteSpace=wrap;html=1;" vertex="1" parent="qDVLff0Tb1akEaBX5qiA-7">
          <mxGeometry width="200" height="130" as="geometry" />
        </mxCell>
        <mxCell id="qDVLff0Tb1akEaBX5qiA-2" value="MMS&lt;br&gt;service module" style="rounded=0;whiteSpace=wrap;html=1;" vertex="1" parent="qDVLff0Tb1akEaBX5qiA-7">
          <mxGeometry x="69.56521739130434" y="52" width="130.43478260869566" height="78" as="geometry" />
        </mxCell>
        <mxCell id="qDVLff0Tb1akEaBX5qiA-3" value="CMS" style="text;html=1;strokeColor=none;fillColor=none;align=center;verticalAlign=middle;whiteSpace=wrap;rounded=0;" vertex="1" parent="qDVLff0Tb1akEaBX5qiA-7">
          <mxGeometry x="26.08695652173913" y="26" width="34.78260869565217" height="17.333333333333336" as="geometry" />
        </mxCell>
        <mxCell id="qDVLff0Tb1akEaBX5qiA-10" value="DHS" style="rounded=0;whiteSpace=wrap;html=1;" vertex="1" parent="qDVLff0Tb1akEaBX5qiA-33">
          <mxGeometry x="70" width="130" height="70" as="geometry" />
        </mxCell>
        <mxCell id="qDVLff0Tb1akEaBX5qiA-11" value="DGS" style="rounded=0;whiteSpace=wrap;html=1;" vertex="1" parent="qDVLff0Tb1akEaBX5qiA-33">
          <mxGeometry x="70" y="90" width="130" height="70" as="geometry" />
        </mxCell>
        <mxCell id="qDVLff0Tb1akEaBX5qiA-12" value="DVS" style="rounded=0;whiteSpace=wrap;html=1;" vertex="1" parent="qDVLff0Tb1akEaBX5qiA-33">
          <mxGeometry x="70" y="170" width="130" height="70" as="geometry" />
        </mxCell>
        <mxCell id="qDVLff0Tb1akEaBX5qiA-20" value="" style="endArrow=classic;startArrow=classic;html=1;exitX=1;exitY=0.5;exitDx=0;exitDy=0;entryX=0;entryY=0.25;entryDx=0;entryDy=0;" edge="1" parent="qDVLff0Tb1akEaBX5qiA-33" source="qDVLff0Tb1akEaBX5qiA-10" target="qDVLff0Tb1akEaBX5qiA-6">
          <mxGeometry width="50" height="50" relative="1" as="geometry">
            <mxPoint x="230" y="260" as="sourcePoint" />
            <mxPoint x="280" y="210" as="targetPoint" />
          </mxGeometry>
        </mxCell>
        <mxCell id="qDVLff0Tb1akEaBX5qiA-22" value="" style="endArrow=classic;startArrow=classic;html=1;exitX=1;exitY=0.5;exitDx=0;exitDy=0;entryX=0;entryY=0.25;entryDx=0;entryDy=0;" edge="1" parent="qDVLff0Tb1akEaBX5qiA-33" source="qDVLff0Tb1akEaBX5qiA-11" target="qDVLff0Tb1akEaBX5qiA-6">
          <mxGeometry width="50" height="50" relative="1" as="geometry">
            <mxPoint x="200" y="324.83" as="sourcePoint" />
            <mxPoint x="320" y="269.99999999999994" as="targetPoint" />
          </mxGeometry>
        </mxCell>
        <mxCell id="qDVLff0Tb1akEaBX5qiA-24" value="" style="endArrow=classic;startArrow=classic;html=1;exitX=1;exitY=0.5;exitDx=0;exitDy=0;entryX=0;entryY=0.25;entryDx=0;entryDy=0;" edge="1" parent="qDVLff0Tb1akEaBX5qiA-33" source="qDVLff0Tb1akEaBX5qiA-12" target="qDVLff0Tb1akEaBX5qiA-6">
          <mxGeometry width="50" height="50" relative="1" as="geometry">
            <mxPoint x="200" y="406.15" as="sourcePoint" />
            <mxPoint x="321.6500000000001" y="263.84000000000003" as="targetPoint" />
          </mxGeometry>
        </mxCell>
        <mxCell id="qDVLff0Tb1akEaBX5qiA-25" value="Grpc" style="text;html=1;strokeColor=none;fillColor=none;align=center;verticalAlign=middle;whiteSpace=wrap;rounded=0;" vertex="1" parent="qDVLff0Tb1akEaBX5qiA-33">
          <mxGeometry x="210" y="135" width="40" height="20" as="geometry" />
        </mxCell>
        <mxCell id="qDVLff0Tb1akEaBX5qiA-26" value="Grpc" style="text;html=1;strokeColor=none;fillColor=none;align=center;verticalAlign=middle;whiteSpace=wrap;rounded=0;" vertex="1" parent="qDVLff0Tb1akEaBX5qiA-33">
          <mxGeometry x="210" y="80" width="40" height="20" as="geometry" />
        </mxCell>
        <mxCell id="qDVLff0Tb1akEaBX5qiA-27" value="Grpc" style="text;html=1;strokeColor=none;fillColor=none;align=center;verticalAlign=middle;whiteSpace=wrap;rounded=0;" vertex="1" parent="qDVLff0Tb1akEaBX5qiA-33">
          <mxGeometry x="210" y="10" width="40" height="20" as="geometry" />
        </mxCell>
        <mxCell id="qDVLff0Tb1akEaBX5qiA-28" value="Spark Thrift Server" style="ellipse;whiteSpace=wrap;html=1;strokeColor=#000000;strokeWidth=1;" vertex="1" parent="qDVLff0Tb1akEaBX5qiA-33">
          <mxGeometry x="560" y="145" width="120" height="80" as="geometry" />
        </mxCell>
        <mxCell id="qDVLff0Tb1akEaBX5qiA-30" value="" style="endArrow=classic;html=1;exitX=1.016;exitY=0.717;exitDx=0;exitDy=0;exitPerimeter=0;entryX=0;entryY=0.5;entryDx=0;entryDy=0;" edge="1" parent="qDVLff0Tb1akEaBX5qiA-33" source="qDVLff0Tb1akEaBX5qiA-1" target="qDVLff0Tb1akEaBX5qiA-8">
          <mxGeometry width="50" height="50" relative="1" as="geometry">
            <mxPoint x="230" y="280" as="sourcePoint" />
            <mxPoint x="280" y="230" as="targetPoint" />
          </mxGeometry>
        </mxCell>
        <mxCell id="qDVLff0Tb1akEaBX5qiA-29" style="edgeStyle=orthogonalEdgeStyle;rounded=0;orthogonalLoop=1;jettySize=auto;html=1;exitX=1;exitY=0.5;exitDx=0;exitDy=0;entryX=0;entryY=0.5;entryDx=0;entryDy=0;endArrow=none;endFill=0;" edge="1" parent="qDVLff0Tb1akEaBX5qiA-33" source="qDVLff0Tb1akEaBX5qiA-6" target="qDVLff0Tb1akEaBX5qiA-28">
          <mxGeometry relative="1" as="geometry" />
        </mxCell>
        <mxCell id="qDVLff0Tb1akEaBX5qiA-32" style="edgeStyle=orthogonalEdgeStyle;rounded=0;orthogonalLoop=1;jettySize=auto;html=1;exitX=0.5;exitY=1;exitDx=0;exitDy=0;entryX=0.5;entryY=1;entryDx=0;entryDy=0;endArrow=classic;endFill=1;" edge="1" parent="qDVLff0Tb1akEaBX5qiA-33" source="qDVLff0Tb1akEaBX5qiA-2" target="qDVLff0Tb1akEaBX5qiA-28">
          <mxGeometry relative="1" as="geometry" />
        </mxCell>
      </root>
    </mxGraphModel>
  </diagram>
</mxfile>
